<svg width="32" height="28" viewBox="0 0 32 28" fill="none" xmlns="http://www.w3.org/2000/svg">
<path d="M16 0L32 27.7128H0L2.06222 24.1409H25.8133L16 7.14375L8.32 20.4459H4.19556L16 0Z" fill="white"/>
<path d="M4.17759 23.3093C4.17759 23.3045 4.17759 23.2883 4.17759 23.2606C4.17759 23.2318 4.17698 23.1993 4.17578 23.1632C4.17578 23.1271 4.17578 23.0952 4.17578 23.0676C4.17578 23.0387 4.17578 23.0219 4.17578 23.0171C4.24434 23.0159 4.29666 23.0128 4.33275 23.008C4.36883 23.0032 4.39289 22.9906 4.40492 22.9701C4.41815 22.9497 4.42476 22.9166 4.42476 22.8709V22.0518C4.42476 22.0061 4.40492 21.9796 4.36522 21.9724C4.32673 21.964 4.2672 21.9598 4.18661 21.9598C4.18661 21.9538 4.18661 21.9285 4.18661 21.884C4.18661 21.8383 4.18661 21.7932 4.18661 21.7487C4.18661 21.703 4.18661 21.6771 4.18661 21.6711C4.23833 21.6711 4.28764 21.6717 4.33455 21.6729C4.38146 21.6729 4.42657 21.6729 4.46987 21.6729C4.55166 21.6729 4.63225 21.6723 4.71163 21.6711C4.79102 21.6699 4.87341 21.6675 4.95881 21.6639V21.9345C5.02617 21.8551 5.11458 21.7866 5.22403 21.7288C5.33469 21.6699 5.46159 21.6386 5.60472 21.635C5.8092 21.635 5.96376 21.6873 6.06841 21.792C6.17426 21.8966 6.22718 22.0686 6.22718 22.308V22.9088C6.22718 22.9677 6.24582 23.0002 6.28311 23.0062C6.3204 23.0122 6.37573 23.0159 6.4491 23.0171V23.3093C6.37573 23.3093 6.30356 23.3093 6.23259 23.3093C6.16163 23.3081 6.07562 23.3069 5.97459 23.3057C5.88077 23.3057 5.79176 23.3063 5.70756 23.3075C5.62337 23.3087 5.54037 23.3093 5.45858 23.3093V23.0171C5.53075 23.0171 5.58187 23.0141 5.61194 23.008C5.64201 23.002 5.66005 22.9894 5.66607 22.9701C5.67208 22.9497 5.67509 22.9196 5.67509 22.8799V22.3856C5.67509 22.2533 5.65404 22.1528 5.61194 22.0843C5.56984 22.0157 5.49166 21.9814 5.37739 21.9814C5.28117 21.9814 5.20238 22.0001 5.14104 22.0374C5.0809 22.0735 5.03519 22.1137 5.00392 22.1583C4.99189 22.1967 4.98407 22.2394 4.98046 22.2864C4.97685 22.3321 4.97505 22.382 4.97505 22.4361V22.8799C4.97505 22.9485 4.9949 22.9882 5.03459 22.999C5.07428 23.0098 5.13984 23.0159 5.23125 23.0171V23.3093C5.14344 23.3093 5.05804 23.3093 4.97505 23.3093C4.89326 23.3081 4.79343 23.3069 4.67555 23.3057C4.57572 23.3057 4.48671 23.3063 4.40853 23.3075C4.33155 23.3087 4.25457 23.3093 4.17759 23.3093Z" fill="white"/>
<path d="M7.65793 23.3635C7.47269 23.3635 7.3049 23.3298 7.15455 23.2624C7.0054 23.1951 6.88632 23.0964 6.79731 22.9665C6.70951 22.8366 6.6656 22.6785 6.6656 22.492C6.6656 22.308 6.70891 22.151 6.79551 22.0211C6.88331 21.8912 7.00179 21.792 7.15094 21.7234C7.30129 21.6549 7.47029 21.6206 7.65793 21.6206C7.83714 21.6206 8.00133 21.6537 8.15048 21.7198C8.30083 21.786 8.42111 21.884 8.51132 22.0139C8.60273 22.1426 8.64844 22.302 8.64844 22.492C8.64844 22.6761 8.60394 22.833 8.51493 22.9629C8.42712 23.0928 8.30805 23.1921 8.15769 23.2606C8.00855 23.3292 7.84196 23.3635 7.65793 23.3635ZM7.65432 23.0604C7.78903 23.0604 7.89428 23.0092 7.97006 22.907C8.04583 22.8048 8.08372 22.6634 8.08372 22.483C8.08372 22.3074 8.04643 22.1697 7.97186 22.0698C7.89728 21.9688 7.79324 21.9183 7.65973 21.9183C7.52381 21.9183 7.41796 21.9688 7.34219 22.0698C7.26761 22.1709 7.23033 22.311 7.23033 22.4902C7.23033 22.6682 7.26701 22.8078 7.34038 22.9088C7.41496 23.0098 7.5196 23.0604 7.65432 23.0604Z" fill="white"/>
<path d="M9.8717 23.3635C9.68286 23.3635 9.51808 23.328 9.37735 23.257C9.23662 23.1861 9.12776 23.0862 9.05078 22.9575C8.9738 22.8276 8.93531 22.6755 8.93531 22.5011C8.93531 22.3315 8.9738 22.1817 9.05078 22.0518C9.12776 21.9219 9.2306 21.8203 9.3593 21.7469C9.48801 21.6735 9.62994 21.6368 9.7851 21.6368C9.87531 21.6368 9.96312 21.6495 10.0485 21.6747C10.1351 21.7 10.2127 21.7427 10.2813 21.8028L10.3029 21.6675C10.333 21.6687 10.3673 21.6705 10.4058 21.6729C10.4442 21.6741 10.4833 21.6759 10.523 21.6783C10.5639 21.6795 10.6 21.6819 10.6313 21.6855V22.2972H10.3173C10.3005 22.1649 10.2584 22.0668 10.191 22.0031C10.1249 21.9393 10.0383 21.9075 9.93124 21.9075C9.79292 21.9075 9.68647 21.9622 9.61189 22.0716C9.53852 22.1799 9.50184 22.3218 9.50184 22.4974C9.50184 22.6779 9.54033 22.8204 9.61731 22.925C9.69549 23.0297 9.80374 23.082 9.94207 23.082C10.0455 23.082 10.1279 23.0525 10.1892 22.9936C10.2506 22.9335 10.2903 22.8493 10.3083 22.741L10.6926 22.7897C10.6589 22.9714 10.5699 23.1127 10.4256 23.2137C10.2813 23.3136 10.0966 23.3635 9.8717 23.3635Z" fill="white"/>
<path d="M11.9736 23.3635C11.7884 23.3635 11.6206 23.3298 11.4702 23.2624C11.3211 23.1951 11.202 23.0964 11.113 22.9665C11.0252 22.8366 10.9813 22.6785 10.9813 22.492C10.9813 22.308 11.0246 22.151 11.1112 22.0211C11.199 21.8912 11.3175 21.792 11.4666 21.7234C11.617 21.6549 11.786 21.6206 11.9736 21.6206C12.1528 21.6206 12.317 21.6537 12.4662 21.7198C12.6165 21.786 12.7368 21.884 12.827 22.0139C12.9184 22.1426 12.9641 22.302 12.9641 22.492C12.9641 22.6761 12.9196 22.833 12.8306 22.9629C12.7428 23.0928 12.6237 23.1921 12.4734 23.2606C12.3242 23.3292 12.1576 23.3635 11.9736 23.3635ZM11.97 23.0604C12.1047 23.0604 12.21 23.0092 12.2857 22.907C12.3615 22.8048 12.3994 22.6634 12.3994 22.483C12.3994 22.3074 12.3621 22.1697 12.2876 22.0698C12.213 21.9688 12.1089 21.9183 11.9754 21.9183C11.8395 21.9183 11.7337 21.9688 11.6579 22.0698C11.5833 22.1709 11.546 22.311 11.546 22.4902C11.546 22.6682 11.5827 22.8078 11.6561 22.9088C11.7307 23.0098 11.8353 23.0604 11.97 23.0604Z" fill="white"/>
<path d="M13.1933 23.3093C13.1933 23.3045 13.1933 23.2883 13.1933 23.2606C13.1933 23.2318 13.1933 23.1993 13.1933 23.1632C13.1933 23.1271 13.1933 23.0952 13.1933 23.0676C13.1933 23.0387 13.1933 23.0219 13.1933 23.0171C13.269 23.0171 13.3226 23.0104 13.3538 22.9972C13.3851 22.9828 13.4038 22.9593 13.4098 22.9268C13.417 22.8944 13.4206 22.8493 13.4206 22.7915V21.3644C13.4206 21.3067 13.402 21.2718 13.3647 21.2597C13.3286 21.2465 13.2745 21.2393 13.2023 21.2381V20.9494C13.2276 20.9494 13.2696 20.9494 13.3286 20.9494C13.3875 20.9494 13.4447 20.9488 13.5 20.9476C13.5553 20.9464 13.5908 20.9458 13.6064 20.9458C13.6666 20.9458 13.7261 20.9452 13.7851 20.944C13.8452 20.9428 13.9071 20.941 13.9709 20.9386V22.8312C13.9709 22.907 13.9853 22.9569 14.0142 22.981C14.0431 23.005 14.1014 23.0171 14.1892 23.0171V23.3093C14.1086 23.3093 14.028 23.3093 13.9474 23.3093C13.8668 23.3081 13.7742 23.3069 13.6696 23.3057C13.5734 23.3057 13.4886 23.3063 13.4152 23.3075C13.3418 23.3087 13.2678 23.3093 13.1933 23.3093Z" fill="white"/>
<path d="M15.4161 23.3635C15.2308 23.3635 15.063 23.3298 14.9127 23.2624C14.7635 23.1951 14.6445 23.0964 14.5555 22.9665C14.4677 22.8366 14.4237 22.6785 14.4237 22.492C14.4237 22.308 14.467 22.151 14.5537 22.0211C14.6415 21.8912 14.7599 21.792 14.9091 21.7234C15.0594 21.6549 15.2284 21.6206 15.4161 21.6206C15.5953 21.6206 15.7595 21.6537 15.9086 21.7198C16.059 21.786 16.1793 21.884 16.2695 22.0139C16.3609 22.1426 16.4066 22.302 16.4066 22.492C16.4066 22.6761 16.3621 22.833 16.2731 22.9629C16.1853 23.0928 16.0662 23.1921 15.9158 23.2606C15.7667 23.3292 15.6001 23.3635 15.4161 23.3635ZM15.4125 23.0604C15.5472 23.0604 15.6524 23.0092 15.7282 22.907C15.804 22.8048 15.8419 22.6634 15.8419 22.483C15.8419 22.3074 15.8046 22.1697 15.73 22.0698C15.6554 21.9688 15.5514 21.9183 15.4179 21.9183C15.282 21.9183 15.1761 21.9688 15.1003 22.0698C15.0258 22.1709 14.9885 22.311 14.9885 22.4902C14.9885 22.6682 15.0252 22.8078 15.0985 22.9088C15.1731 23.0098 15.2777 23.0604 15.4125 23.0604Z" fill="white"/>
<path d="M16.6411 23.3093V23.0171C16.7265 23.0171 16.7855 23.0141 16.8179 23.008C16.8516 23.002 16.8709 22.9882 16.8757 22.9665C16.8817 22.9437 16.8847 22.9076 16.8847 22.8583V22.0626C16.8847 22.0097 16.8661 21.9796 16.8288 21.9724C16.7927 21.964 16.7319 21.9598 16.6465 21.9598V21.6711C16.673 21.6711 16.7097 21.6717 16.7566 21.6729C16.8035 21.6729 16.8462 21.6735 16.8847 21.6747C16.9232 21.6747 16.9424 21.6747 16.9424 21.6747C17.017 21.6747 17.0928 21.6735 17.1698 21.6711C17.2468 21.6687 17.3255 21.6669 17.4061 21.6657V22.0103C17.4603 21.8876 17.5384 21.7944 17.6407 21.7307C17.7429 21.6657 17.868 21.6332 18.0159 21.6332C18.0677 21.6332 18.1242 21.638 18.1855 21.6477V22.1925C18.1555 22.1901 18.12 22.1895 18.0791 22.1907C18.0382 22.1907 18.0039 22.1919 17.9763 22.1943C17.963 22.145 17.9414 22.1095 17.9113 22.0879C17.8824 22.065 17.8421 22.0536 17.7904 22.0536C17.699 22.0536 17.6226 22.0885 17.5613 22.1583C17.5011 22.2268 17.4651 22.3194 17.453 22.4361C17.4494 22.4457 17.4464 22.465 17.444 22.4938C17.4428 22.5227 17.4416 22.557 17.4404 22.5967C17.4392 22.6352 17.438 22.6749 17.4368 22.7158C17.4368 22.7554 17.4368 22.7921 17.4368 22.8258C17.4368 22.8583 17.4368 22.8829 17.4368 22.8998C17.4368 22.9611 17.4566 22.996 17.4963 23.0044C17.536 23.0128 17.607 23.0171 17.7092 23.0171V23.3093C17.613 23.3093 17.5186 23.3087 17.426 23.3075C17.3334 23.3063 17.2245 23.3057 17.0994 23.3057C17.0008 23.3057 16.9178 23.3063 16.8504 23.3075C16.7843 23.3087 16.7145 23.3093 16.6411 23.3093Z" fill="white"/>
</svg>
