<svg width="1106" height="1817" viewBox="0 0 1106 1817" fill="none" xmlns="http://www.w3.org/2000/svg">
<circle cx="703.5" cy="64.5" r="12.5" fill="#585858"/>
<circle cx="703.5" cy="94.5" r="12.5" fill="#D9D9D9"/>
<circle cx="703.5" cy="124.5" r="12.5" fill="#D9D9D9"/>
<circle cx="703.5" cy="154.5" r="12.5" fill="#D9D9D9"/>
<circle cx="703.5" cy="184.5" r="12.5" fill="#D9D9D9"/>
<circle cx="703.5" cy="214.5" r="12.5" fill="#D9D9D9"/>
<circle cx="703.5" cy="244.5" r="12.5" fill="#D9D9D9"/>
<circle cx="703.5" cy="274.5" r="12.5" fill="#D9D9D9"/>
<circle cx="703.5" cy="304.5" r="12.5" fill="#D9D9D9"/>
<circle cx="703.5" cy="334.5" r="12.5" fill="#D9D9D9"/>
<circle cx="703.5" cy="364.5" r="12.5" fill="#D9D9D9"/>
<path d="M716 394.5C716 401.404 710.404 407 703.5 407C696.596 407 691 401.404 691 394.5C691 387.596 696.596 382 703.5 382C710.404 382 716 387.596 716 394.5Z" fill="#D9D9D9"/>
<circle cx="703.5" cy="424.5" r="12.5" fill="#D9D9D9"/>
<circle cx="703.5" cy="454.5" r="12.5" fill="#D9D9D9"/>
<circle cx="433.5" cy="394.5" r="12.5" transform="rotate(-90 433.5 394.5)" fill="#D9D9D9"/>
<circle cx="463.5" cy="394.5" r="12.5" transform="rotate(-90 463.5 394.5)" fill="#D9D9D9"/>
<circle cx="493.5" cy="394.5" r="12.5" transform="rotate(-90 493.5 394.5)" fill="#D9D9D9"/>
<circle cx="523.5" cy="394.5" r="12.5" transform="rotate(-90 523.5 394.5)" fill="#D9D9D9"/>
<circle cx="553.5" cy="394.5" r="12.5" transform="rotate(-90 553.5 394.5)" fill="#D9D9D9"/>
<circle cx="583.5" cy="394.5" r="12.5" transform="rotate(-90 583.5 394.5)" fill="#585858"/>
<circle cx="613.5" cy="394.5" r="12.5" transform="rotate(-90 613.5 394.5)" fill="#D9D9D9"/>
<circle cx="643.5" cy="394.5" r="12.5" transform="rotate(-90 643.5 394.5)" fill="#D9D9D9"/>
<circle cx="673.5" cy="394.5" r="12.5" transform="rotate(-90 673.5 394.5)" fill="#D9D9D9"/>
<circle cx="103.5" cy="364.5" r="12.5" transform="rotate(-90 103.5 364.5)" fill="#585858"/>
<circle cx="133.5" cy="364.5" r="12.5" transform="rotate(-90 133.5 364.5)" fill="#D9D9D9"/>
<circle cx="163.5" cy="364.5" r="12.5" transform="rotate(-90 163.5 364.5)" fill="#585858"/>
<circle cx="193.5" cy="364.5" r="12.5" transform="rotate(-90 193.5 364.5)" fill="#D9D9D9"/>
<circle cx="223.5" cy="364.5" r="12.5" transform="rotate(-90 223.5 364.5)" fill="#D9D9D9"/>
<circle cx="253.5" cy="364.5" r="12.5" transform="rotate(-90 253.5 364.5)" fill="#D9D9D9"/>
<circle cx="283.5" cy="364.5" r="12.5" transform="rotate(-90 283.5 364.5)" fill="#D9D9D9"/>
<circle cx="313.5" cy="364.5" r="12.5" transform="rotate(-90 313.5 364.5)" fill="#D9D9D9"/>
<circle cx="343.5" cy="364.5" r="12.5" transform="rotate(-90 343.5 364.5)" fill="#D9D9D9"/>
<circle cx="373.5" cy="364.5" r="12.5" transform="matrix(0 -1 1 0 9 738)" fill="#D9D9D9"/>
<circle cx="403.5" cy="364.5" r="12.5" transform="rotate(-90 403.5 364.5)" fill="#D9D9D9"/>
<circle cx="433.5" cy="364.5" r="12.5" transform="rotate(-90 433.5 364.5)" fill="#D9D9D9"/>
<circle cx="463.5" cy="364.5" r="12.5" transform="rotate(-90 463.5 364.5)" fill="#D9D9D9"/>
<circle cx="493.5" cy="364.5" r="12.5" transform="rotate(-90 493.5 364.5)" fill="#D9D9D9"/>
<circle cx="703.5" cy="484.5" r="12.5" fill="#D9D9D9"/>
<circle cx="703.5" cy="514.5" r="12.5" fill="#D9D9D9"/>
<circle cx="703.5" cy="544.5" r="12.5" fill="#D9D9D9"/>
<circle cx="703.5" cy="574.5" r="12.5" fill="#D9D9D9"/>
<circle cx="703.5" cy="604.5" r="12.5" fill="#585858"/>
<circle cx="703.5" cy="634.5" r="12.5" fill="#D9D9D9"/>
<circle cx="703.5" cy="664.5" r="12.5" fill="#D9D9D9"/>
<circle cx="703.5" cy="694.5" r="12.5" fill="#D9D9D9"/>
<circle cx="703.5" cy="724.5" r="12.5" fill="#D9D9D9"/>
<circle cx="703.5" cy="754.5" r="12.5" fill="#D9D9D9"/>
<circle cx="703.5" cy="784.5" r="12.5" fill="#D9D9D9"/>
<circle cx="703.5" cy="814.5" r="12.5" fill="#585858"/>
<circle cx="703.5" cy="844.5" r="12.5" fill="#D9D9D9"/>
<circle cx="703.5" cy="874.5" r="12.5" fill="#D9D9D9"/>
<circle cx="668.5" cy="874.5" r="12.5" fill="#D9D9D9"/>
<circle cx="668.5" cy="904.5" r="12.5" fill="#D9D9D9"/>
<circle cx="668.5" cy="934.5" r="12.5" fill="#D9D9D9"/>
<circle cx="668.5" cy="964.5" r="12.5" fill="#D9D9D9"/>
<circle cx="668.5" cy="994.5" r="12.5" fill="#D9D9D9"/>
<circle cx="668.5" cy="1024.5" r="12.5" fill="#D9D9D9"/>
<circle cx="668.5" cy="1054.5" r="12.5" fill="#585858"/>
<circle cx="668.5" cy="1084.5" r="12.5" fill="#D9D9D9"/>
<circle cx="668.5" cy="1114.5" r="12.5" fill="#D9D9D9"/>
<circle cx="668.5" cy="1144.5" r="12.5" fill="#D9D9D9"/>
<circle cx="338.5" cy="1174.5" r="12.5" transform="rotate(-90 338.5 1174.5)" fill="#D9D9D9"/>
<circle cx="368.5" cy="1174.5" r="12.5" transform="rotate(-90 368.5 1174.5)" fill="#D9D9D9"/>
<circle cx="398.5" cy="1174.5" r="12.5" transform="rotate(-90 398.5 1174.5)" fill="#D9D9D9"/>
<circle cx="428.5" cy="1174.5" r="12.5" transform="rotate(-90 428.5 1174.5)" fill="#D9D9D9"/>
<circle cx="458.5" cy="1174.5" r="12.5" transform="rotate(-90 458.5 1174.5)" fill="#D9D9D9"/>
<circle cx="488.5" cy="1174.5" r="12.5" transform="rotate(-90 488.5 1174.5)" fill="#D9D9D9"/>
<circle cx="518.5" cy="1174.5" r="12.5" transform="rotate(-90 518.5 1174.5)" fill="#D9D9D9"/>
<circle cx="548.5" cy="1174.5" r="12.5" transform="rotate(-90 548.5 1174.5)" fill="#D9D9D9"/>
<circle cx="578.5" cy="1174.5" r="12.5" transform="rotate(-90 578.5 1174.5)" fill="#D9D9D9"/>
<circle cx="608.5" cy="1174.5" r="12.5" transform="rotate(-90 608.5 1174.5)" fill="#D9D9D9"/>
<circle cx="638.5" cy="1174.5" r="12.5" transform="rotate(-90 638.5 1174.5)" fill="#D9D9D9"/>
<circle cx="668.5" cy="1174.5" r="12.5" transform="rotate(-90 668.5 1174.5)" fill="#D9D9D9"/>
<circle cx="12.5" cy="1413.5" r="12.5" transform="rotate(-90 12.5 1413.5)" fill="#D9D9D9"/>
<circle cx="42.5" cy="1413.5" r="12.5" transform="rotate(-90 42.5 1413.5)" fill="#D9D9D9"/>
<circle cx="72.5" cy="1413.5" r="12.5" transform="rotate(-90 72.5 1413.5)" fill="#D9D9D9"/>
<circle cx="102.5" cy="1413.5" r="12.5" transform="rotate(-90 102.5 1413.5)" fill="#585858"/>
<circle cx="132.5" cy="1413.5" r="12.5" transform="rotate(-90 132.5 1413.5)" fill="#D9D9D9"/>
<circle cx="162.5" cy="1413.5" r="12.5" transform="rotate(-90 162.5 1413.5)" fill="#D9D9D9"/>
<circle cx="192.5" cy="1413.5" r="12.5" transform="rotate(-90 192.5 1413.5)" fill="#D9D9D9"/>
<circle cx="222.5" cy="1413.5" r="12.5" transform="rotate(-90 222.5 1413.5)" fill="#D9D9D9"/>
<circle cx="252.5" cy="1413.5" r="12.5" transform="rotate(-90 252.5 1413.5)" fill="#D9D9D9"/>
<circle cx="282.5" cy="1413.5" r="12.5" transform="rotate(-90 282.5 1413.5)" fill="#D9D9D9"/>
<circle cx="312.5" cy="1413.5" r="12.5" transform="rotate(-90 312.5 1413.5)" fill="#D9D9D9"/>
<circle cx="342.5" cy="1413.5" r="12.5" transform="rotate(-90 342.5 1413.5)" fill="#D9D9D9"/>
<circle cx="372.5" cy="1413.5" r="12.5" transform="rotate(-90 372.5 1413.5)" fill="#D9D9D9"/>
<circle cx="402.5" cy="1413.5" r="12.5" transform="rotate(-90 402.5 1413.5)" fill="#D9D9D9"/>
<circle cx="433.87" cy="1413.54" r="12.5" transform="rotate(0.195024 433.87 1413.54)" fill="#D9D9D9"/>
<circle cx="433.768" cy="1443.54" r="12.5" transform="rotate(0.195024 433.768 1443.54)" fill="#D9D9D9"/>
<circle cx="433.666" cy="1473.54" r="12.5" transform="rotate(0.195024 433.666 1473.54)" fill="#D9D9D9"/>
<circle cx="433.564" cy="1503.54" r="12.5" transform="rotate(0.195024 433.564 1503.54)" fill="#585858"/>
<circle cx="433.462" cy="1533.54" r="12.5" transform="rotate(0.195024 433.462 1533.54)" fill="#D9D9D9"/>
<circle cx="433.359" cy="1563.54" r="12.5" transform="rotate(0.195024 433.359 1563.54)" fill="#D9D9D9"/>
<circle cx="433.257" cy="1593.54" r="12.5" transform="rotate(0.195024 433.257 1593.54)" fill="#D9D9D9"/>
<circle cx="433.155" cy="1623.54" r="12.5" transform="rotate(0.195024 433.155 1623.54)" fill="#D9D9D9"/>
<circle cx="433.053" cy="1653.54" r="12.5" transform="rotate(0.195024 433.053 1653.54)" fill="#D9D9D9"/>
<circle cx="432.951" cy="1683.54" r="12.5" transform="rotate(0.195024 432.951 1683.54)" fill="#D9D9D9"/>
<circle cx="432.849" cy="1713.54" r="12.5" transform="rotate(0.195024 432.849 1713.54)" fill="#D9D9D9"/>
<circle cx="432.747" cy="1743.54" r="12.5" transform="rotate(0.195024 432.747 1743.54)" fill="#585858"/>
<circle cx="432.645" cy="1773.54" r="12.5" transform="rotate(0.195024 432.645 1773.54)" fill="#D9D9D9"/>
<circle cx="432.543" cy="1803.54" r="12.5" transform="rotate(0.195024 432.543 1803.54)" fill="#D9D9D9"/>
<circle cx="308.5" cy="994.5" r="12.5" fill="#D9D9D9"/>
<circle cx="308.5" cy="1024.5" r="12.5" fill="#D9D9D9"/>
<circle cx="308.5" cy="1054.5" r="12.5" fill="#D9D9D9"/>
<circle cx="308.5" cy="1084.5" r="12.5" fill="#D9D9D9"/>
<circle cx="308.5" cy="1114.5" r="12.5" fill="#585858"/>
<circle cx="308.5" cy="1144.5" r="12.5" fill="#D9D9D9"/>
<circle cx="308.5" cy="1174.5" r="12.5" fill="#D9D9D9"/>
<circle cx="308.5" cy="1204.5" r="12.5" fill="#D9D9D9"/>
<circle cx="308.5" cy="1234.5" r="12.5" fill="#D9D9D9"/>
<circle cx="308.5" cy="1264.5" r="12.5" fill="#D9D9D9"/>
<circle cx="308.5" cy="1294.5" r="12.5" fill="#D9D9D9"/>
<circle cx="308.5" cy="1324.5" r="12.5" fill="#D9D9D9"/>
<circle cx="308.5" cy="1354.5" r="12.5" fill="#D9D9D9"/>
<circle cx="308.5" cy="1384.5" r="12.5" fill="#D9D9D9"/>
<circle cx="703.5" cy="904.5" r="12.5" transform="rotate(-90 703.5 904.5)" fill="#D9D9D9"/>
<circle cx="733.5" cy="904.5" r="12.5" transform="rotate(-90 733.5 904.5)" fill="#D9D9D9"/>
<circle cx="763.5" cy="904.5" r="12.5" transform="rotate(-90 763.5 904.5)" fill="#D9D9D9"/>
<circle cx="793.5" cy="904.5" r="12.5" transform="rotate(-90 793.5 904.5)" fill="#D9D9D9"/>
<circle cx="823.5" cy="904.5" r="12.5" transform="rotate(-90 823.5 904.5)" fill="#585858"/>
<circle cx="853.5" cy="904.5" r="12.5" transform="rotate(-90 853.5 904.5)" fill="#D9D9D9"/>
<circle cx="883.5" cy="904.5" r="12.5" transform="rotate(-90 883.5 904.5)" fill="#D9D9D9"/>
<circle cx="913.5" cy="904.5" r="12.5" transform="rotate(-90 913.5 904.5)" fill="#D9D9D9"/>
<circle cx="943.5" cy="904.5" r="12.5" transform="rotate(-90 943.5 904.5)" fill="#D9D9D9"/>
<circle cx="973.5" cy="904.5" r="12.5" transform="rotate(-90 973.5 904.5)" fill="#D9D9D9"/>
<circle cx="1003.5" cy="904.5" r="12.5" transform="rotate(-90 1003.5 904.5)" fill="#D9D9D9"/>
<circle cx="1033.5" cy="904.5" r="12.5" transform="rotate(-90 1033.5 904.5)" fill="#D9D9D9"/>
<circle cx="1063.5" cy="904.5" r="12.5" transform="rotate(-90 1063.5 904.5)" fill="#D9D9D9"/>
<circle cx="1093.5" cy="904.5" r="12.5" transform="rotate(-90 1093.5 904.5)" fill="#585858"/>
<circle cx="703.5" cy="22.5" r="22.5" fill="#585858"/>
</svg>
