<svg width="40" height="40" viewBox="0 0 40 40" fill="none" xmlns="http://www.w3.org/2000/svg">
<path fill-rule="evenodd" clip-rule="evenodd" d="M20 5C11.7139 5 5 11.7139 5 20C5 26.626 9.29688 32.251 15.2588 34.2334C16.0107 34.3701 16.2842 33.9111 16.2842 33.5107C16.2842 33.1543 16.2695 32.2119 16.2646 30.9619C12.0898 31.8652 11.2109 28.9502 11.2109 28.9502C10.5273 27.2168 9.5459 26.7529 9.5459 26.7529C8.18359 25.8252 9.64844 25.8447 9.64844 25.8447C11.1523 25.9521 11.9434 27.3877 11.9434 27.3877C13.2813 29.6826 15.4541 29.0186 16.3086 28.6377C16.4453 27.666 16.8359 27.0068 17.2607 26.6309C13.9307 26.2549 10.4297 24.9658 10.4297 19.2188C10.4297 17.5781 11.0156 16.2402 11.9727 15.1904C11.8213 14.8145 11.3037 13.2861 12.1191 11.2207C12.1191 11.2207 13.3789 10.8203 16.2451 12.7588C17.4414 12.4268 18.7256 12.2607 20 12.2559C21.2744 12.2607 22.5586 12.4268 23.7549 12.7588C26.6211 10.8203 27.876 11.2207 27.876 11.2207C28.6963 13.2861 28.1836 14.8145 28.0273 15.1904C28.9893 16.2402 29.5654 17.5781 29.5654 19.2188C29.5654 24.9805 26.0596 26.2451 22.7197 26.6211C23.2568 27.0801 23.7354 27.998 23.7354 29.3945C23.7354 31.4014 23.7207 33.0176 23.7207 33.5107C23.7207 33.9111 23.9893 34.3799 24.751 34.2334C30.708 32.2461 35 26.626 35 20C35 11.7139 28.2861 5 20 5Z" fill="white"/>
</svg>
