<svg width="968" height="192" viewBox="0 0 968 192" fill="none" xmlns="http://www.w3.org/2000/svg">
<path d="M54.8522 189L0.67041 2.81816H50.3977L78.4886 124.818H80.034L112.125 2.81816H152.67L184.761 125.091H186.307L214.489 2.81816H264.125L210.034 189H166.67L133.125 76.0909H131.67L98.125 189H54.8522Z" fill="#B2B1B1"/>
<path d="M447.443 95.9091C447.443 116.394 443.504 133.758 435.625 148C427.746 162.242 417.08 173.061 403.625 180.455C390.231 187.848 375.201 191.545 358.534 191.545C341.807 191.545 326.746 187.818 313.352 180.364C299.958 172.909 289.322 162.091 281.443 147.909C273.625 133.667 269.716 116.333 269.716 95.9091C269.716 75.4242 273.625 58.0606 281.443 43.8182C289.322 29.5757 299.958 18.7576 313.352 11.3636C326.746 3.96968 341.807 0.272705 358.534 0.272705C375.201 0.272705 390.231 3.96968 403.625 11.3636C417.08 18.7576 427.746 29.5757 435.625 43.8182C443.504 58.0606 447.443 75.4242 447.443 95.9091ZM401.443 95.9091C401.443 83.7879 399.716 73.5454 396.261 65.1818C392.867 56.8182 387.958 50.4848 381.534 46.1818C375.17 41.8788 367.504 39.7272 358.534 39.7272C349.625 39.7272 341.958 41.8788 335.534 46.1818C329.11 50.4848 324.17 56.8182 320.716 65.1818C317.322 73.5454 315.625 83.7879 315.625 95.9091C315.625 108.03 317.322 118.273 320.716 126.636C324.17 135 329.11 141.333 335.534 145.636C341.958 149.939 349.625 152.091 358.534 152.091C367.504 152.091 375.17 149.939 381.534 145.636C387.958 141.333 392.867 135 396.261 126.636C399.716 118.273 401.443 108.03 401.443 95.9091Z" fill="#B2B1B1"/>
<path d="M473.716 189V2.81816H550.625C564.564 2.81816 576.595 5.33331 586.716 10.3636C596.898 15.3333 604.746 22.4848 610.261 31.8182C615.776 41.0909 618.534 52.0909 618.534 64.8182C618.534 77.7273 615.716 88.697 610.08 97.7273C604.443 106.697 596.443 113.545 586.08 118.273C575.716 122.939 563.443 125.273 549.261 125.273H498L514.988 90.5L540.898 89.8182C547.686 89.8182 553.352 88.9394 557.898 87.1818C562.504 85.3636 565.989 82.6363 568.352 79C570.716 75.303 571.898 70.5757 571.898 64.8182C571.898 59.0606 570.716 54.303 568.352 50.5454C565.989 46.7273 562.504 43.8788 557.898 42C553.292 40.0606 547.625 39.0909 540.898 39.0909C540.898 39.0909 527.285 37.8229 518.716 39.0909C510.147 40.3589 518.716 189 518.716 189H473.716ZM578.534 103.909L624.898 189H575.807L530.352 103.909H578.534Z" fill="#B2B1B1"/>
<path d="M643.216 189V2.81816H688.216V81.5454H690.67L752.216 2.81816H805.216L739.216 85.9091L806.398 189H752.58L706.216 115.818L688.216 138.545V189H643.216Z" fill="#B2B1B1"/>
<path d="M921.602 58.6363C920.996 51.9697 918.299 46.7879 913.511 43.0909C908.784 39.3333 902.026 37.4545 893.239 37.4545C887.42 37.4545 882.572 38.2121 878.693 39.7272C874.814 41.2424 871.905 43.3333 869.966 46C868.026 48.606 867.026 51.606 866.966 55C866.845 57.7879 867.39 60.2424 868.602 62.3636C869.875 64.4848 871.693 66.3636 874.057 68C876.481 69.5757 879.39 70.9697 882.784 72.1818C886.178 73.3939 889.996 74.4545 894.239 75.3636L910.239 79C919.451 81 927.572 83.6667 934.602 87C941.693 90.3333 947.633 94.303 952.42 98.9091C957.269 103.515 960.936 108.818 963.42 114.818C965.905 120.818 967.178 127.545 967.239 135C967.178 146.758 964.208 156.848 958.33 165.273C952.451 173.697 943.996 180.152 932.966 184.636C921.996 189.121 908.754 191.364 893.239 191.364C877.663 191.364 864.087 189.03 852.511 184.364C840.936 179.697 831.936 172.606 825.511 163.091C819.087 153.576 815.784 141.545 815.602 127H858.693C859.057 133 860.663 138 863.511 142C866.36 146 870.269 149.03 875.239 151.091C880.269 153.152 886.087 154.182 892.693 154.182C898.754 154.182 903.905 153.364 908.148 151.727C912.451 150.091 915.754 147.818 918.057 144.909C920.36 142 921.542 138.667 921.602 134.909C921.542 131.394 920.451 128.394 918.33 125.909C916.208 123.364 912.936 121.182 908.511 119.364C904.148 117.485 898.572 115.758 891.784 114.182L872.33 109.636C856.208 105.939 843.511 99.9697 834.239 91.7273C824.966 83.4242 820.36 72.2121 820.42 58.0909C820.36 46.5757 823.451 36.4848 829.693 27.8182C835.936 19.1515 844.572 12.3939 855.602 7.54544C866.633 2.69695 879.208 0.272705 893.33 0.272705C907.754 0.272705 920.269 2.72725 930.875 7.63634C941.542 12.4848 949.814 19.303 955.693 28.0909C961.572 36.8788 964.572 47.0606 964.693 58.6363H921.602Z" fill="#B2B1B1"/>
</svg>
