<svg width="40" height="40" viewBox="0 0 40 40" fill="none" xmlns="http://www.w3.org/2000/svg">
<path d="M33.8379 4.97392C33.3563 4.99487 32.9143 5.13339 32.526 5.28642C32.1673 5.42769 30.8792 5.96909 28.8281 6.82939C26.777 7.6897 24.0591 8.83036 21.1621 10.0488C15.3681 12.4857 8.85706 15.2268 5.52083 16.6308C5.40626 16.6786 4.94098 16.821 4.42708 17.2135C3.912 17.6069 3.33984 18.4607 3.33984 19.3945C3.33984 20.1477 3.71587 20.9149 4.16992 21.3541C4.62398 21.7934 5.08415 21.9987 5.46875 22.1517V22.1484C6.7688 22.6663 10.6512 24.2199 11.5755 24.5898C11.9034 25.5724 13.311 29.7788 13.6458 30.8366H13.6426C13.8793 31.5852 14.11 32.0732 14.4303 32.4804C14.5905 32.6841 14.7817 32.8686 15.0163 33.0143C15.1063 33.0702 15.2059 33.1135 15.306 33.1543C15.3199 33.1602 15.3343 33.1616 15.3483 33.1673L15.3092 33.1575C15.3383 33.1692 15.3643 33.1864 15.3939 33.1966C15.4421 33.2132 15.4755 33.2126 15.5404 33.2259C15.7687 33.2961 15.9966 33.3431 16.2077 33.3431C17.1137 33.3431 17.6693 32.8515 17.6693 32.8515L17.7051 32.8255L21.6178 29.5149L26.4095 33.9485C26.497 34.0721 27.1827 35 28.7695 35C29.7164 35 30.465 34.5313 30.944 34.0397C31.423 33.5481 31.7213 33.0451 31.8555 32.3632L31.8587 32.36C31.9657 31.8097 36.5527 8.77601 36.5527 8.77601L36.543 8.81507C36.6857 8.17783 36.7279 7.56157 36.5592 6.93356C36.3906 6.30555 35.9355 5.69267 35.3874 5.37106C34.8393 5.04944 34.3195 4.95297 33.8379 4.97392ZM33.1803 8.62301C32.9991 9.53306 28.89 30.1764 28.6361 31.4713L21.7155 25.0683L17.0378 29.0234L18.3333 23.9583C18.3333 23.9583 27.2709 14.9114 27.8092 14.3847C28.2426 13.9631 28.3333 13.8153 28.3333 13.6686C28.3333 13.4736 28.233 13.3333 28.0013 13.3333C27.793 13.3333 27.51 13.5329 27.36 13.6263C25.4539 14.8146 17.3355 19.4411 13.3431 21.7122C13.1028 21.6159 9.49566 20.1674 7.55208 19.3912C11.0092 17.9362 16.9353 15.443 22.4544 13.1217C25.351 11.9035 28.068 10.7618 30.1172 9.90231C31.8469 9.17679 32.7492 8.80114 33.1803 8.62301ZM28.5872 31.7089H28.5905L28.5872 31.7187C28.5894 31.7079 28.5856 31.7174 28.5872 31.7089Z" fill="white"/>
</svg>
