<svg width="40" height="40" viewBox="0 0 40 40" fill="none" xmlns="http://www.w3.org/2000/svg">
<path d="M19.9999 3.33337C10.8149 3.33337 3.33325 10.815 3.33325 20C3.33325 29.185 10.8149 36.6667 19.9999 36.6667C29.1849 36.6667 36.6666 29.185 36.6666 20C36.6666 10.815 29.1849 3.33337 19.9999 3.33337ZM19.9999 6.66671C27.3835 6.66671 33.3333 12.6165 33.3333 20C33.3333 27.3836 27.3835 33.3334 19.9999 33.3334C12.6164 33.3334 6.66659 27.3836 6.66659 20C6.66659 12.6165 12.6164 6.66671 19.9999 6.66671ZM10.7421 14.1667C10.1071 14.1667 9.99992 14.4779 9.99992 14.8112C9.99992 15.4129 10.4991 18.6609 13.2291 22.3959C15.2074 25.1059 17.8153 26.6667 20.1236 26.6667C21.5219 26.6667 21.6666 26.3102 21.6666 25.7552V23.278C21.6666 22.6097 21.8205 22.5 22.2655 22.5C22.5839 22.5 23.2291 22.7084 24.4791 24.1667C25.9208 25.8484 26.1817 26.6667 27.0084 26.6667H29.1926C29.6993 26.6667 29.9915 26.455 30.0032 26.0417C30.0048 25.9367 29.9893 25.8169 29.9543 25.6869C29.7927 25.2069 29.0532 24.035 28.1282 22.9167C27.6148 22.2967 27.1098 21.6826 26.8782 21.351C26.7198 21.1326 26.6599 20.98 26.6666 20.8334C26.6733 20.68 26.7533 20.5306 26.8749 20.3256C26.8533 20.3256 29.6728 16.3692 29.9478 15.0358C29.9862 14.9092 30.0049 14.7909 29.9999 14.6875C29.9866 14.3859 29.7786 14.1667 29.2903 14.1667H27.1093C26.5593 14.1667 26.3039 14.499 26.1555 14.834C26.1555 14.834 24.7974 17.6325 23.2291 19.4792C22.7208 20.0125 22.4624 20 22.1874 20C22.0408 20 21.6666 19.8227 21.6666 19.3327V15.0131C21.6666 14.4347 21.5245 14.1667 21.0579 14.1667H17.1842C16.8442 14.1667 16.6666 14.4322 16.6666 14.7006C16.6666 15.2556 17.4149 15.3916 17.4999 16.9499V19.9675C17.4999 20.7008 17.3745 20.8334 17.0995 20.8334C16.3579 20.8334 14.8975 18.332 13.9192 15.0554C13.7075 14.4104 13.4959 14.1667 12.9459 14.1667H10.7421Z" fill="white"/>
</svg>
